<svg width="189" height="69" viewBox="0 0 189 69" fill="none" xmlns="http://www.w3.org/2000/svg">
<g filter="url(#filter0_d_1077_1681)">
<path d="M87 36.4416V40H84.8428V38.3033H78V30H80.3196V36.4416H83.5253V30H85.8448V36.4416H87Z" fill="white"/>
<path d="M95 36.2519V38H88V30H94.8388V31.7492H90.4364V33.097H94.3151V34.7884H90.4364V36.2519H95Z" fill="white"/>
<path d="M104 30V38H101.621V34.8796H98.3776V38H96V30H98.3776V33.0025H101.621V30H104Z" fill="white"/>
<path d="M111.996 31.7948H109.594V38H107.411V31.7948H105V30H112L111.996 31.7948Z" fill="white"/>
<path d="M119.148 30.3616C119.706 30.5761 120.182 30.9337 120.516 31.39C120.845 31.8596 121.012 32.406 120.998 32.9611C121.02 33.5112 120.854 34.0541 120.524 34.5168C120.193 34.9795 119.713 35.3399 119.149 35.5495C118.487 35.8017 117.772 35.9241 117.053 35.9086H115.509V38H113V30.0013H117.053C117.772 29.9857 118.486 30.1085 119.148 30.3616ZM118.072 33.8239C118.333 33.6215 118.464 33.3347 118.464 32.9611C118.474 32.7992 118.444 32.6372 118.376 32.487C118.308 32.3368 118.204 32.2021 118.072 32.0927C117.809 31.8867 117.421 31.7836 116.905 31.7836H115.512V34.1263H116.905C117.421 34.1263 117.809 34.0255 118.072 33.8239Z" fill="white"/>
<path d="M83.7974 50.4431H80.1595L79.4827 52H77L80.7981 44H83.1899L87 52H84.4731L83.7974 50.4431ZM83.0799 48.7751L81.9737 46.2174L80.8675 48.7751H83.0799Z" fill="white"/>
<path d="M95.5905 48.526C95.8708 48.8686 96.0147 49.2878 95.9987 49.7148C96.0113 50.0405 95.9347 50.3641 95.7758 50.6562C95.6169 50.9484 95.3806 51.2 95.0883 51.3884C94.4806 51.7969 93.6204 52.0007 92.5076 52H88V44H92.2694C93.3235 44 94.1418 44.1809 94.7242 44.5427C95.0032 44.7086 95.2302 44.9375 95.3831 45.207C95.536 45.4765 95.6096 45.7775 95.5967 46.0806C95.6043 46.4428 95.4979 46.7993 95.29 47.1081C95.073 47.4151 94.7662 47.6608 94.4041 47.8176C94.8701 47.9374 95.2843 48.1847 95.5905 48.526ZM90.4487 47.2004H92.0372C92.7402 47.2004 93.0917 46.9376 93.0917 46.412C93.0917 45.8864 92.7402 45.6232 92.0372 45.6225H90.4487V47.2004ZM93.4876 49.5424C93.4876 49.0019 93.1276 48.7317 92.4075 48.7317H90.4524V50.3775H92.4075C93.1268 50.3775 93.4868 50.0992 93.4876 49.5424Z" fill="white"/>
<path d="M102.997 45.7948H100.595V52H98.4123V45.7948H96V44H103L102.997 45.7948Z" fill="white"/>
<path d="M105.206 52.419C104.541 52.0443 103.983 51.4811 103.594 50.7903C103.206 50.0994 103 49.3074 103 48.5C103 47.6926 103.206 46.9006 103.594 46.2097C103.983 45.5189 104.541 44.9557 105.206 44.581C105.918 44.1989 106.704 44 107.5 44C108.296 44 109.082 44.1989 109.794 44.581C110.459 44.9557 111.017 45.5189 111.406 46.2097C111.794 46.9006 112 47.6926 112 48.5C112 49.3074 111.794 50.0994 111.406 50.7903C111.017 51.4811 110.459 52.0443 109.794 52.419C109.082 52.8011 108.296 53 107.5 53C106.704 53 105.918 52.8011 105.206 52.419ZM108.603 50.664C108.935 50.4569 109.206 50.155 109.387 49.7919C109.576 49.3916 109.674 48.949 109.674 48.5C109.674 48.0511 109.576 47.6084 109.387 47.2081C109.206 46.8451 108.935 46.5435 108.603 46.3372C108.266 46.1345 107.886 46.0281 107.499 46.0281C107.113 46.0281 106.733 46.1345 106.395 46.3372C106.065 46.5442 105.793 46.8456 105.612 47.2081C105.424 47.6087 105.326 48.0512 105.326 48.5C105.326 48.9488 105.424 49.3913 105.612 49.7919C105.794 50.1545 106.065 50.4562 106.395 50.664C106.733 50.8659 107.113 50.9719 107.499 50.9719C107.886 50.9719 108.266 50.8659 108.603 50.664Z" fill="white"/>
<path d="M122 44V52H119.611V45.7948H116.371V52H114V44H122Z" fill="white"/>
<path d="M125.205 52.4193C124.54 52.0443 123.983 51.4809 123.594 50.79C123.205 50.0992 123 49.3073 123 48.5C123 47.6927 123.205 46.9008 123.594 46.21C123.983 45.5191 124.54 44.9557 125.205 44.5807C125.918 44.1988 126.704 44 127.5 44C128.296 44 129.082 44.1988 129.795 44.5807C130.46 44.9557 131.017 45.5191 131.406 46.21C131.795 46.9008 132 47.6927 132 48.5C132 49.3073 131.795 50.0992 131.406 50.79C131.017 51.4809 130.46 52.0443 129.795 52.4193C129.082 52.8012 128.296 53 127.5 53C126.704 53 125.918 52.8012 125.205 52.4193ZM128.605 50.6641C128.936 50.457 129.207 50.1551 129.388 49.792C129.577 49.3916 129.676 48.949 129.676 48.5C129.676 48.051 129.577 47.6084 129.388 47.208C129.208 46.845 128.936 46.5434 128.605 46.3371C128.267 46.1344 127.887 46.0279 127.501 46.0279C127.114 46.0279 126.734 46.1344 126.396 46.3371C126.065 46.5434 125.793 46.845 125.613 47.208C125.424 47.6084 125.325 48.051 125.325 48.5C125.325 48.949 125.424 49.3916 125.613 49.792C125.794 50.1551 126.065 50.457 126.396 50.6641C126.734 50.8661 127.114 50.9721 127.501 50.9721C127.887 50.9721 128.267 50.8661 128.605 50.6641Z" fill="white"/>
<path d="M137.434 48.9375H136.358V52H134V44H136.357V47.1081H137.491L139.489 44H141.977L139.357 47.8632L142 52H139.334L137.434 48.9375Z" fill="white"/>
<path d="M148.113 44.3616C148.673 44.5787 149.15 44.9403 149.486 45.4014C149.821 45.8626 150 46.403 150 46.9556C150 47.5081 149.821 48.0485 149.486 48.5097C149.15 48.9708 148.673 49.3324 148.113 49.5495C147.454 49.8019 146.744 49.9244 146.03 49.9086H144.493V52H142V44.0014H146.03C146.745 43.9854 147.455 44.1082 148.113 44.3616ZM147.043 47.8239C147.303 47.6216 147.433 47.3347 147.433 46.9611C147.443 46.7992 147.413 46.6372 147.346 46.487C147.279 46.3368 147.175 46.2021 147.043 46.0928C146.782 45.8867 146.395 45.7837 145.884 45.7837H144.5V48.1263H145.885C146.397 48.1263 146.783 48.0255 147.043 47.8239Z" fill="white"/>
<path d="M156.793 50.4431H153.16L152.483 52H150L153.798 44H156.19L160 52H157.465L156.793 50.4431ZM156.075 48.7751L154.97 46.2174L153.864 48.7751H156.075Z" fill="white"/>
<path d="M162.188 52.4244C161.524 52.0584 160.968 51.5042 160.583 50.8236C160.201 50.1162 160 49.3152 160 48.5C160 47.6848 160.201 46.8838 160.583 46.1763C160.968 45.4959 161.523 44.9418 162.187 44.5755C162.898 44.1847 163.689 43.9872 164.49 44.0006C165.183 43.9895 165.87 44.133 166.507 44.4216C167.091 44.6894 167.603 45.1053 168 45.6327L166.53 47.0411C166.001 46.3668 165.358 46.0292 164.601 46.0284C164.188 46.0202 163.78 46.1268 163.418 46.3375C163.076 46.5389 162.796 46.8414 162.613 47.2083C162.425 47.6097 162.327 48.0518 162.327 48.5C162.327 48.9482 162.425 49.3903 162.613 49.7917C162.796 50.1586 163.076 50.4614 163.418 50.6637C163.781 50.8733 164.188 50.9794 164.601 50.9716C165.358 50.9716 166.001 50.634 166.53 49.9589L168 51.3672C167.604 51.895 167.091 52.311 166.507 52.5784C165.87 52.867 165.183 53.0104 164.49 52.9993C163.69 53.0132 162.898 52.8156 162.188 52.4244Z" fill="white"/>
<path d="M172.433 48.9375H171.356V52H169V44H171.356V47.1081H172.492L174.489 44H176.977L174.357 47.8632L177 52H174.334L172.433 48.9375Z" fill="white"/>
<path d="M177 44H179.325V48.6972L182.777 44H185V52H182.675V47.3139L179.234 52H177V44Z" fill="white"/>
<path d="M34.8079 14.5293C33.4918 14.9126 32.2171 15.4049 31 16C33.2112 14.6379 35.6538 13.6154 38.2299 12.9732C39.2782 12.7154 40.3446 12.5224 41.4217 12.3955C44.4554 12.1645 47.7205 12.0198 51.1837 12H51.2821C51.6656 12.1048 52.0225 12.2774 52.3323 12.5079C52.5981 12.7064 52.824 12.9451 53 13.2136C45.0349 13.2907 39.6259 13.58 38.5941 13.7466C37.5966 13.9068 36.6472 14.1036 35.9531 14.2607C35.2591 14.4179 34.8079 14.5293 34.8079 14.5293Z" fill="white"/>
<path d="M73.9999 21.6295C74.0137 20.4728 72.6041 19.6944 71.9828 19.3485C70.533 18.5388 69.0521 18.5388 68.1569 18.6337C67.5878 17.1947 66.7567 15.875 65.706 14.7425C64.9798 13.9611 64.1546 13.279 63.2516 12.7137C62.9249 12.598 62.6153 12.5032 62.2885 12.3967C60.0402 12.207 57.6641 12.0682 55.1706 12C54.8682 12.1353 54.5947 12.3282 54.3651 12.5679C54.1647 12.7827 53.9961 13.0254 53.8646 13.2886C56.3086 13.2712 58.9724 13.2782 61.8041 13.314C62.7681 15.7608 63.2473 18.3734 63.2148 21.0049H24.8175C22.3243 21.5323 19.8774 22.2606 17.5005 23.183C15.557 23.9372 13.4479 24.7723 10.9682 26.4322C9.94605 27.1162 8.96937 27.8666 8.04441 28.6785C8.06359 29.2383 8.14463 29.7942 8.28605 30.336C8.42995 30.8879 8.63772 31.421 8.9051 31.9242C8.53748 32.3387 8.21465 32.7911 7.94201 33.2741C7.65118 33.7856 7.41954 34.329 7.25161 34.8935C6.9781 34.5851 6.75725 34.2333 6.59804 33.8524C6.45125 33.501 6.35777 33.1294 6.32074 32.7501C6.09061 33.4962 5.86047 34.2457 5.63034 34.9952C4.94938 35.5792 4.44774 36.3459 4.18397 37.2057C4.01773 37.7813 3.96342 38.3838 4.02403 38.9801C4.23345 39.2014 4.44287 39.4239 4.65229 39.6475C4.68451 40.1831 4.71672 40.7232 4.74549 41.2588C4.88357 42.4583 5.02165 43.6543 5.15742 44.8538C4.99058 44.9753 4.82374 45.1002 4.65229 45.2217C4.77656 45.7896 4.89738 46.3575 5.02165 46.9255C5.10884 47.2983 5.28186 47.6454 5.52678 47.9388C5.72885 48.1855 5.97758 48.3896 6.2586 48.5391C6.56994 47.8929 6.93849 47.2762 7.35978 46.6965C8.00312 45.8033 8.76369 45.0018 9.62081 44.3136C9.79199 44.1756 9.98885 44.0733 10.1999 44.0127C10.4109 43.9521 10.6318 43.9345 10.8497 43.9608C19.8908 45.0559 28.9311 46.1509 37.9706 47.2459C39.4766 47.6773 40.9111 48.3294 42.228 49.181C46.0425 51.6448 47.8156 55.1219 48.529 56.8049C50.7903 57.065 53.0738 57.065 55.3351 56.8049C59.348 56.3339 63.2277 55.0655 66.7485 53.0734V40.6966C66.6383 38.5971 66.8078 36.4921 67.2525 34.4377C67.6966 32.4123 68.2006 31.4488 68.3536 31.1666C68.7863 30.3673 69.6124 29.2002 71.3338 27.8029L72.8895 26.5559C72.6053 25.9348 72.2751 25.2674 71.8838 24.5745C71.5007 23.9002 71.1129 23.2859 70.7332 22.7319H73.5362C73.8116 22.4286 73.9753 22.0395 73.9999 21.6295ZM41.1372 43.3756C37.3895 44.3298 26.9485 43.342 26.3513 43.2853H26.3341C22.484 42.8944 19.3772 42.4409 16.8458 42.0187C12.418 41.2808 11.3514 40.9048 10.2456 40.1183C8.85102 39.1258 8.44139 38.2224 8.2757 37.7112C7.70037 35.931 8.61399 34.2792 8.73596 34.071C9.1556 33.3452 9.75598 32.7416 10.478 32.3198C10.1994 31.4897 10.136 30.6019 10.2939 29.7403C10.6587 27.8017 12.0487 26.7329 12.4031 26.4692C12.1154 26.748 10.5379 28.3315 10.7531 30.4772C10.804 30.9743 10.9435 31.4582 11.165 31.9057C19.027 32.2265 27.0014 32.6707 35.0882 33.2382C36.759 33.3562 38.424 33.4792 40.0832 33.6072L50.9914 28.1707C47.6469 30.1224 44.3011 32.073 40.9543 34.0225C41.6344 34.3295 42.2672 34.7331 42.8333 35.2208C43.9839 36.2109 44.5144 37.2578 44.9413 38.123C45.4625 39.1767 45.7559 39.7933 45.5373 40.4734C45.3808 40.9592 45.0287 41.2669 44.5294 41.6301C43.7952 42.1495 42.602 43.0019 41.1372 43.3756ZM56.3431 54.8362C54.8774 55.0755 53.393 55.1796 51.9085 55.1473C50.4956 51.3481 47.9675 48.0701 44.6594 45.748C47.1172 45.4761 49.1883 45.3616 50.721 45.3107C57.7918 45.0794 59.2773 45.9909 60.0252 46.6004C61.4785 47.7849 62.2701 49.5662 62.3633 49.7802C62.7656 50.7036 63.0096 51.6887 63.0848 52.694C60.9523 53.7314 58.6815 54.4526 56.3431 54.835V54.8362ZM65.1088 32.3406C65.0913 32.4059 65.061 32.4671 65.0197 32.5205C64.9784 32.574 64.927 32.6186 64.8683 32.6518C58.5558 36.8252 55.174 37.835 55.174 37.835C53.5298 38.3266 51.3769 38.8968 48.8144 39.3907L45.3774 34.4169L44.3119 34.1404L45.7893 33.9669L62.4957 30.0966L64.3919 28.2228L63.2183 30.0931C64.0997 30.9769 64.7406 31.6651 64.9707 31.9601C65.0184 32.0104 65.0552 32.0701 65.079 32.1353C65.1027 32.2006 65.1129 32.2701 65.1088 32.3395V32.3406Z" fill="white"/>
<path d="M47 56.9992C38.2948 57.0346 29.6239 55.902 21.2169 53.6314C16.7062 52.4092 12.289 50.8614 8 49C12.4399 50.3903 17.1871 51.7008 22.2416 52.8822C30.3993 54.7804 38.6687 56.1555 47 56.9992Z" fill="white"/>
<path d="M43 51.9366C35.722 52.2177 28.4382 51.5635 21.3234 49.9896C17.8236 49.213 14.3756 48.2145 11 47C15.0001 48.0125 19.2928 48.9458 23.8689 49.7348C30.2004 50.8276 36.5874 51.5626 43 51.9366Z" fill="white"/>
<path d="M68 52L68.2179 37.2894C68.4309 35.3599 69.07 32.6405 71.0176 30.1289C71.3225 29.7346 71.6505 29.3577 72 29C70.9549 30.5859 70.2154 32.3428 69.8174 34.185C69.6117 35.1487 69.502 36.1293 69.49 37.1134C69.369 40.8401 69.2473 44.5675 69.1248 48.2958C68.7498 49.5285 68.3749 50.7633 68 52Z" fill="white"/>
<path d="M33 11.2396C31.0963 11.487 30.0397 12.1926 29.421 12.8581C28.0134 14.373 27.6053 17.0234 27.5292 16.9998C27.5184 16.9998 27.5292 16.9492 27.5292 16.9492C27.5827 16.5781 27.3138 14.3718 25.5862 12.8581C24.1774 11.6236 22.5354 11.494 22 11.474C23.468 11.2605 24.8209 10.5643 25.8408 9.49738C26.7494 8.52847 27.3383 7.30853 27.5292 6C27.663 7.33106 28.2504 8.57738 29.1949 9.5339C30.2147 10.5372 31.5657 11.1428 33 11.2396Z" fill="white"/>
<path d="M24 16.4293C23.6738 16.4596 23.2906 16.5568 23.0162 16.8412C22.5823 17.2929 22.5063 18.1168 22.5084 17.9861C22.5087 17.7644 22.4607 17.5453 22.3678 17.3436C22.2749 17.1419 22.1393 16.9623 21.9701 16.8172C21.6952 16.5997 21.3517 16.485 21 16.4931C21.3808 16.4396 21.7337 16.2651 22.0057 15.9958C22.2778 15.7266 22.4542 15.3771 22.5084 15C22.5446 15.3751 22.7147 15.7251 22.9881 15.9871C23.2615 16.2491 23.6203 16.4059 24 16.4293Z" fill="white"/>
<path d="M57 11.0345C56.6507 11.0567 56.3082 11.1285 55.987 11.2468C55.7515 11.3349 55.5385 11.4611 55.3601 11.6182C55.204 11.7589 55.0727 11.918 54.9702 12.0905C54.9376 12.1435 54.91 12.1966 54.8862 12.2369C54.8862 12.2369 54.8435 12.3155 54.8022 12.4036C54.7155 12.5988 54.6414 12.7979 54.5802 13C54.5339 12.8652 54.485 12.7495 54.4411 12.6551C54.4198 12.6052 54.3746 12.515 54.3157 12.4014C54.2653 12.2954 54.2054 12.1929 54.1364 12.0947C53.9985 11.9008 53.822 11.7285 53.6148 11.5853C53.3729 11.4177 53.0943 11.2922 52.7949 11.216C52.5376 11.1489 52.2692 11.1174 52 11.1226C52.6331 11.0462 53.2197 10.798 53.6719 10.4152C54.1241 10.0325 54.4173 9.53587 54.5075 9C54.5661 9.51663 54.8316 10.0008 55.2598 10.3722C55.7263 10.7637 56.3445 10.9989 57 11.0345Z" fill="white"/>
<path d="M41 22.0372L32.4286 32L24 31.6401L38.2607 22L41 22.0372Z" fill="#252525"/>
<path d="M36 22L21.6324 31L18 30.9073L35.1002 22.0158L36 22Z" fill="#252525"/>
<path d="M62 53C61.7266 52.0345 61.0843 50.3648 59.4973 48.9485C59.1804 48.6698 58.8437 48.4121 58.4897 48.177C55.5576 46.2747 49.7191 47.2203 49 47.3426C52.5255 47.2501 54.9991 47.9444 56.3232 48.4183C57.6031 48.8768 58.3233 49.2913 58.7096 49.5381C60.0818 50.4274 61.2099 51.6143 62 53Z" fill="white"/>
<path d="M36.859 14.5753C38.4777 14.2263 40.2193 14.0867 42 14L34.0851 19.9797L26 20C28.4406 18.1456 31.6181 15.7114 36.859 14.5753Z" fill="white"/>
<path d="M63 19.97L50 20C50.7944 18.017 51.5887 16.0348 52.3831 14.0533C55.2516 14.0071 58.4726 13.9857 61.956 14.0104C62.1722 14.7615 62.3738 15.5823 62.545 16.4601C62.7693 17.6204 62.9212 18.7925 63 19.97Z" fill="white"/>
<path d="M53 14C52.1718 15.9878 51.3429 17.9763 50.5132 19.9656L35 20L43.0915 14.2809C43.7168 14.2519 44.3467 14.2293 44.9778 14.2067C47.1814 14.1259 49.8927 14.0495 53 14Z" fill="#252525"/>
</g>
<defs>
<filter id="filter0_d_1077_1681" x="0" y="0" width="189" height="77" filterUnits="userSpaceOnUse" color-interpolation-filters="sRGB">
<feFlood flood-opacity="0" result="BackgroundImageFix"/>
<feColorMatrix in="SourceAlpha" type="matrix" values="0 0 0 0 0 0 0 0 0 0 0 0 0 0 0 0 0 0 127 0" result="hardAlpha"/>
<feOffset dy="4"/>
<feGaussianBlur stdDeviation="2"/>
<feComposite in2="hardAlpha" operator="out"/>
<feColorMatrix type="matrix" values="0 0 0 0 0 0 0 0 0 0 0 0 0 0 0 0 0 0 0.25 0"/>
<feBlend mode="normal" in2="BackgroundImageFix" result="effect1_dropShadow_1077_1681"/>
<feBlend mode="normal" in="SourceGraphic" in2="effect1_dropShadow_1077_1681" result="shape"/>
</filter>
</defs>
</svg>
